<svg width="629" height="561" viewBox="0 0 629 561" fill="none" xmlns="http://www.w3.org/2000/svg">
<path fill-rule="evenodd" clip-rule="evenodd" d="M459.804 38.2713C459.116 39.5201 457.982 40.1988 457.281 39.7777C456.58 39.3577 456.33 39.5201 456.726 40.1417C457.12 40.761 455.671 44.7448 453.506 48.994C439.68 76.131 441.042 109.968 457.026 136.48C461.688 144.213 470.776 154.177 479.123 160.708C504.999 180.955 538.069 186.589 568.884 175.999C574.49 174.073 579.944 172.421 581.008 172.327C582.07 172.234 582.746 171.853 582.51 171.483C582.274 171.112 583.608 169.931 585.475 168.86C587.341 167.788 588.869 167.211 588.869 167.577C588.869 167.945 589.929 167.284 591.226 166.11C593.517 164.036 593.528 163.84 591.611 159.066C590.527 156.367 588.799 152.898 587.772 151.358C586.746 149.818 585.146 147.046 584.219 145.198C583.291 143.35 582.014 141.25 581.38 140.532C580.746 139.813 578.672 136.673 576.771 133.553C574.87 130.433 572.925 127.871 572.45 127.859C571.975 127.847 571.586 127.177 571.586 126.37C571.586 125.561 570.664 123.924 569.539 122.73C568.412 121.535 566.233 118.794 564.696 116.638C563.159 114.482 561.094 111.962 560.105 111.038C559.118 110.114 556.827 107.422 555.015 105.056C550.647 99.3515 528.588 77.8703 522.041 72.9458C519.189 70.801 515.704 67.9462 514.295 66.6034C512.885 65.2605 510.164 63.2602 508.246 62.1593C506.327 61.0572 504.758 59.8219 504.758 59.4143C504.758 59.0055 503.202 58.0445 501.301 57.2796C499.4 56.5146 497.845 55.4451 497.845 54.9041C497.845 54.3621 497.165 53.9196 496.334 53.9196C495.502 53.9196 493.709 52.9117 492.348 51.6797C490.989 50.4477 489.618 49.4397 489.302 49.4397C488.986 49.4397 485.984 47.8505 482.628 45.9073C472.701 40.1585 464.306 36 462.626 36C461.762 36 460.492 37.0226 459.804 38.2713Z" fill="#FF521F"/>
<path fill-rule="evenodd" clip-rule="evenodd" d="M317.401 0.743624C229.3 7.19487 145.778 55.4845 97.8585 127.675C85.8422 145.777 87.5096 144.267 82.2613 141.802C67.9147 135.063 50.4919 135.029 34.0137 141.708L29.7308 143.444L38.9837 149.862C49.3071 157.02 65.9909 171.332 68.7184 175.371C70.1838 177.539 70.2566 178.695 69.1376 181.983L67.782 185.969L60.6618 185.287C41.7656 183.478 20.3266 193.376 9.79181 208.773C5.64858 214.828 -1.14367 232.387 0.164653 233.657C0.544565 234.024 5.69475 232.767 11.6094 230.861C22.5044 227.35 39.1616 223.655 50.5416 222.223L56.7784 221.438L56.1075 225.806C55.738 228.207 54.5232 235.466 53.4077 241.935C50.8557 256.732 50.4989 299.851 52.7945 315.869C60.8108 371.786 82.7163 419.832 119.741 462.71C156.577 505.368 212.246 539.208 267.747 552.679C292.828 558.766 304.833 560.259 333.568 560.856C362.287 561.454 376.991 560.289 400.372 555.562C499.319 535.558 581.739 464.429 614.513 370.759C624.728 341.564 628.193 321.42 628.871 287.303C629.458 257.717 628.151 243.386 622.686 219.531C601.349 126.398 531.999 49.851 439.173 16.9753C401.602 3.66958 357.582 -2.19915 317.401 0.743624ZM323.752 8.47967C274.512 12.099 231.892 25.2357 192.29 48.9997C153.934 72.0165 118.552 107.464 96.2499 145.219L94.1575 148.761L99.0918 153.621C105.445 159.879 110.062 167.747 112.494 176.464L114.431 183.407L118.435 179.107C123.314 173.869 134.807 166.684 142.528 164.045C150.999 161.151 165.142 160.658 174.213 162.94C185.155 165.694 192.244 169.804 201.295 178.644L209.324 186.485L202.45 187.388C183.473 189.88 158.256 196.493 143.806 202.77C138.605 205.029 138.715 205.117 149.386 207.207C171.377 211.515 189.513 230.15 193.003 252.023C194.291 260.095 193.108 272.499 190.388 279.437L189.152 282.593L178.761 271.851C166.98 259.676 140.477 238.575 136.963 238.575C136.55 238.575 137.477 241.221 139.023 244.456C149.859 267.133 142.5 296.055 122.253 310.357C116.232 314.611 100.432 321.964 99.4221 320.982C99.2327 320.799 100.491 314.155 102.218 306.217C105.079 293.059 105.363 289.557 105.431 266.58C105.472 252.717 105.061 237.853 104.518 233.548L103.531 225.722L100.688 229.068C87.7591 244.284 76.4033 265.97 71.2416 285.302C66.6619 302.45 65.4644 328.142 68.4586 344.994C73.1538 371.421 78.58 383.189 92.6344 397.429C109.675 414.695 130.168 424.287 157.789 427.925C180.698 430.941 222.106 427.27 252.158 419.557C264.998 416.262 263.618 416.173 227.139 417.944C201.033 419.211 200.957 419.207 197.409 416.756C191.938 412.978 188.07 405.713 188.07 399.219V393.71L197.019 391.132C246.949 376.74 278.196 369.242 312.205 363.491C325.422 361.256 331.441 359.658 337.609 356.748C342.39 354.493 349.231 352.388 354.353 351.596C362.527 350.332 363.404 349.905 369.974 343.985C373.803 340.535 380.378 335.012 384.585 331.711C392.124 325.796 392.232 325.633 392.059 320.509L391.882 315.309L399.857 312.8C404.243 311.42 408.062 310.068 408.344 309.794C408.626 309.52 403.837 301.197 397.702 291.299C383.861 268.967 382.972 268.584 378.17 282.888C376.105 289.038 374.419 292.35 373.465 292.129C371.773 291.737 328.949 252.108 328.949 250.935C328.949 250.515 321.025 242.6 311.339 233.346C262.366 186.555 260.581 184.798 283.336 205.78C326.274 245.37 329.524 248.308 330.87 248.763C331.609 249.013 341.122 257.482 352.008 267.582C363.077 277.852 372.219 285.506 372.75 284.945C373.272 284.394 374.575 281.326 375.644 278.127C377.398 272.881 377.416 272.054 375.823 269.696C374.851 268.258 373.303 263.565 372.384 259.269C370.862 252.159 370.195 251.003 364.965 246.416C359.664 241.767 332.323 210.294 327.986 203.848C326.95 202.308 319.425 193.312 311.265 183.857C277.031 144.194 255.075 118.408 258.688 122.114C262.97 126.505 316.563 187.734 323.562 196.231C325.997 199.188 328.613 201.608 329.374 201.608C330.979 201.608 358.182 233.097 366.026 244.036C371.031 251.015 371.674 251.503 376.821 252.22C379.83 252.64 382.617 253.298 383.013 253.681C383.409 254.065 384.65 251.758 385.772 248.556L387.813 242.733L372.442 220.187C363.987 207.786 356.786 196.586 356.438 195.297C356.091 194.009 346.823 179.652 335.842 163.395C312.581 128.954 307.415 121.097 309.044 122.634C309.698 123.25 321.328 139.765 334.891 159.334C348.453 178.903 366.91 205.486 375.905 218.408L392.262 241.901L389.833 249.151L387.402 256.402L390.748 258.97C392.589 260.383 398.274 263.082 403.381 264.97C415.014 269.267 417.034 270.302 424.406 275.744C429.96 279.845 430.972 280.171 439.141 280.504C448.684 280.893 450.419 281.689 464.523 292.162L471.344 297.226L470.564 289.844C469.982 284.337 470.157 282.336 471.249 281.963C472.321 281.597 472.07 280.593 470.313 278.222L467.91 274.981L472.622 268.317C478.364 260.196 482.691 257.601 491.613 256.929C498.076 256.443 498.656 256.613 502.439 260.097C505.693 263.095 506.699 265.143 507.85 271.12C509.251 278.389 509.223 278.561 505.02 288.751C502.685 294.409 499.322 300.984 497.547 303.36C495.772 305.738 493.451 309.312 492.39 311.304C491.262 313.421 488.813 315.592 486.495 316.532C481.527 318.545 481.519 319.686 486.449 322.822C491.629 326.115 492.876 328.263 494.182 336.126C494.784 339.75 496.736 345.118 498.52 348.055L501.762 353.395L517.84 353.014C544.917 352.374 565.238 355.938 583.57 364.546C589.286 367.23 596.002 371 598.493 372.924C603.92 377.116 603.738 377.302 608.357 362.917C618.032 332.792 620.528 315.712 620.472 280.022C620.434 255.407 620.066 249.479 617.808 237.148C613.754 215.007 608.33 196.625 599.279 174.352L597.991 171.181L592.313 175.225C583.987 181.154 568.566 187.805 556.869 190.514C548.059 192.552 544.264 192.808 529.874 192.326C510.767 191.686 502.582 189.801 487.726 182.62C457.762 168.133 436.369 139.928 431.662 108.704C429.95 97.3397 430.814 78.415 433.508 68.3041C435.892 59.3593 442.641 45.0151 448.302 36.8679L452.533 30.7773L447.613 28.7139C429.545 21.1369 399.755 13.4679 377.16 10.5767C364.101 8.90648 334.023 7.72466 323.752 8.47967ZM457.778 38.1762C453.24 43.4087 446.968 54.9188 443.922 63.606C427.768 109.678 451.25 159.566 497.866 178.214C527.001 189.868 563.49 185.782 588.539 168.057C592.606 165.18 593.366 164.093 592.727 162.071C591.444 158.017 583.399 142.79 581.261 140.371C580.625 139.652 578.547 136.511 576.642 133.391C574.736 130.27 572.787 127.707 572.311 127.696C571.836 127.684 571.445 127.014 571.445 126.206C571.445 125.397 570.521 123.76 569.393 122.566C568.264 121.37 566.08 118.629 564.54 116.473C562.999 114.316 560.93 111.796 559.939 110.872C558.95 109.948 556.654 107.255 554.838 104.888C550.46 99.1825 528.352 77.6969 521.791 72.7714C518.933 70.6262 515.44 67.7709 514.028 66.4277C512.616 65.0846 509.888 63.0839 507.965 61.9828C506.043 60.8805 504.47 59.6449 504.47 59.2372C504.47 58.8283 502.911 57.8672 501.006 57.1021C499.1 56.337 497.541 55.2672 497.541 54.7261C497.541 54.184 496.86 53.7415 496.028 53.7415C495.194 53.7415 493.397 52.7333 492.033 51.5011C490.671 50.2688 489.297 49.2606 488.98 49.2606C488.664 49.2606 485.654 47.6711 482.292 45.7275C475.079 41.5582 465.437 36.5497 462.665 35.5315C461.324 35.0386 459.77 35.8798 457.778 38.1762ZM224.958 41.2176C210.124 45.9908 199.074 54.7676 190.674 68.4531C178.986 87.4875 179.846 114.027 192.831 135.107C199.492 145.923 220.207 164.405 222.618 161.684C223.088 161.154 225.383 158.396 227.719 155.555L231.965 150.39L229.261 144.353C223.638 131.802 222.166 124.568 222.221 109.752C222.268 97.2176 222.606 94.9268 225.435 87.9076C229.352 78.191 236.093 68.0162 242.51 62.1351L247.391 57.6622L242.438 63.2632C238.377 67.8571 233.105 75.9304 233.105 77.5558C233.105 77.7653 234.852 77.7384 236.987 77.4964C246.278 76.4446 268.532 85.5809 284.371 96.9521L291.178 101.84L295.613 98.433C298.052 96.5589 300.336 94.5717 300.69 94.0183C301.657 92.4993 295.981 81.183 289.195 71.1046C280.836 58.6871 270.4 48.9806 260.096 44.0405C252.819 40.5522 250.387 39.9686 241.547 39.59C233.814 39.2584 229.833 39.6493 224.958 41.2176ZM50.776 145.452C48.0623 146.189 48.0958 146.267 52.5081 149.525C65.8339 159.366 85.4716 180.071 98.0387 197.533C104.763 206.875 105.327 206.878 106.615 197.582C108.341 185.111 103.078 170.107 93.3584 159.791C82.6273 148.401 63.559 141.98 50.776 145.452ZM148.861 170.845C145.397 171.785 140.322 173.64 137.582 174.967C131.564 177.882 121.972 186.871 118.202 193.125C115.651 197.358 112.569 207.209 113.796 207.209C114.094 207.209 120.144 204.514 127.242 201.219C146.701 192.187 171.408 183.95 184.945 181.981C187.933 181.546 190.379 180.81 190.379 180.346C190.379 178.898 181.792 173.909 175.849 171.903C167.913 169.224 156.484 168.776 148.861 170.845ZM46.3256 194.345C37.4179 196.222 29.4791 200.322 23.0725 206.354C18.4986 210.662 11.7422 220.285 12.6971 221.134C12.9327 221.344 17.8022 220.37 23.5182 218.971C39.4214 215.078 58.6583 212.801 78.0684 212.512C87.7487 212.368 95.6725 211.936 95.6783 211.552C95.7049 209.928 85.035 201.516 79.4899 198.791C73.7 195.944 60.6422 192.611 55.8511 192.755C54.5809 192.793 50.2945 193.509 46.3256 194.345ZM121.96 215.217C119.579 215.864 117.63 216.74 117.63 217.162C117.63 217.586 122.669 220.686 128.828 224.052C145.128 232.961 162.129 244.966 174.097 256.013C186.149 267.14 187.075 266.946 184.779 253.783C181.993 237.82 171.973 224.843 157.255 218.136C150.247 214.942 148.121 214.522 137.838 214.295C131.487 214.157 124.343 214.571 121.96 215.217ZM64.693 226.533C60.7692 243.739 57.5405 281.909 59.2611 290.751C60.1006 295.068 60.1641 294.96 62.8501 284.677C68.6712 262.382 78.7787 242.537 93.0352 225.412L96.9994 220.652H81.5165H66.0337L64.693 226.533ZM112.32 229.893C115.428 244.932 115.204 281.735 111.887 300.746C111.242 304.443 110.712 307.622 110.708 307.811C110.683 309.099 118.731 303.17 123.004 298.75C129.087 292.459 133.411 283.884 135.197 274.565C137.895 260.498 131.88 243.397 120.324 232.277C113.027 225.254 111.252 224.726 112.32 229.893ZM388.995 273.924C388.995 274.003 393.801 281.836 399.677 291.328L410.358 308.587L416.496 309.314C419.872 309.714 422.981 310.376 423.403 310.787C423.827 311.197 424.796 309.358 425.557 306.7C426.318 304.042 427.278 300.806 427.689 299.511C428.345 297.446 426.593 296.107 413.433 288.615C404.904 283.76 397.379 278.643 395.995 276.759C394.565 274.811 392.621 273.513 391.278 273.611C390.023 273.703 388.995 273.843 388.995 273.924ZM466.011 355.353C461.759 357.97 458.28 360.409 458.28 360.773C458.28 361.286 474.628 358.355 479.411 356.983C479.918 356.839 478.85 355.341 477.038 353.658L473.743 350.595L466.011 355.353ZM402.203 356.546C392.561 361.59 373.984 373.26 373.984 374.275C373.984 376.951 377.466 375.445 389.241 367.679C402.187 359.14 410.917 352.848 409.781 352.873C409.463 352.88 406.053 354.533 402.203 356.546ZM511.536 361.505C506.985 361.897 506.695 362.087 508.649 363.4C512.657 366.094 526.941 372.816 531.606 374.204C534.147 374.96 539.148 377.015 542.72 378.77C546.291 380.524 549.672 381.961 550.235 381.961C550.796 381.961 553.589 383.154 556.443 384.613C559.296 386.072 564.205 387.63 567.353 388.077C572.438 388.798 588.524 392.947 593.525 394.828C594.579 395.225 595.668 394.892 596.018 394.067C596.36 393.261 597.464 390.735 598.47 388.453L600.3 384.305L592.912 379.19C572.546 365.091 543.403 358.758 511.536 361.505ZM469.828 367.346C444.47 372.519 439.836 373.954 432.608 378.873C426.985 382.699 423.868 383.856 413.504 385.961C406.693 387.344 398.143 389.772 394.505 391.356C388.351 394.033 387.933 394.453 388.532 397.357C389.278 400.975 385.715 406.167 381.39 407.762C378.353 408.882 348.546 411.657 322.455 413.249C307.613 414.154 302.585 414.981 288.968 418.755C266.261 425.048 245.559 429.816 226.176 433.214C211.067 435.865 206.614 436.154 180.564 436.177C152.814 436.202 151.254 436.086 140.32 433.202C123.318 428.717 109.706 422.365 98.288 413.588C92.8538 409.411 92.5051 409.549 95.2846 414.782C104.176 431.516 124.594 457.313 142.576 474.529C154.211 485.67 156.88 487.616 167.507 492.715C189.092 503.07 208.086 507.071 229.64 505.803C268.641 503.508 300.788 490.793 382.627 445.291C448.45 408.693 477.837 396.082 513.077 389.306L525.726 386.874L513.655 383.137C501.935 379.51 501.364 379.176 494.06 371.719C489.921 367.494 486.284 364.066 485.977 364.102C485.668 364.138 478.402 365.598 469.828 367.346ZM521.708 395.997C486.469 401.327 454.014 414.949 384.376 453.648C302.685 499.043 269.663 511.86 229.64 513.705C216.249 514.322 197.691 512.689 189.797 510.198C184.586 508.552 201.294 518.049 216.361 525.296C235.762 534.627 250.215 539.884 271.155 545.225C286.163 549.053 287.624 549.218 307.008 549.264C337.953 549.338 361.129 543.939 389.871 529.963C415.747 517.379 435.843 503.09 478.51 466.938C514.9 436.103 525.315 428.619 543.012 420.593C556.286 414.573 563.667 412.891 576.192 413.033L586.137 413.145L588.606 408.882C589.965 406.538 591.076 404.132 591.076 403.536C591.076 402.164 576.479 397.928 564.782 395.905C553.682 393.985 534.745 394.025 521.708 395.997ZM559.322 422.903C542.115 427.479 523.073 440.054 486.462 471.017C445.574 505.597 432.245 515.632 409.865 528.689C394.648 537.567 381.6 543.44 364.746 548.999L351.466 553.379L360.704 552.715C391.813 550.478 424.797 542.574 453.661 530.44C494.994 513.062 536.284 481.415 563.346 446.372C573.922 432.675 580.683 423.074 580.683 421.75C580.683 420.566 564.905 421.419 559.322 422.903Z" fill="#17363D"/>
</svg>
