<svg width="180" height="180" viewBox="0 0 180 180" fill="none" xmlns="http://www.w3.org/2000/svg">
<rect width="180" height="180" fill="#191A3E"/>
<path d="M134.25 31.58V121H97.19L74.75 96.52V150.75H44.83V31.58H134.25ZM74.75 91.25H104.5V61.33H74.75V91.25Z" fill="#BDEC00"/>
<rect x="72" y="56" width="45" height="38" fill="#BDEC00"/>
<path d="M67.1788 124.656C69.1744 124.767 71.2046 124.867 71.6907 124.876L72.5749 124.896L71.7812 126.729C71.1448 128.2 70.9353 128.946 70.7229 130.496C70.4179 132.719 70.1198 133.666 69.6904 133.779C69.3236 133.875 60.1628 129.82 60.0266 129.503C59.8706 129.138 60.3979 128.275 61.7131 126.741C62.3828 125.959 63.0473 125.132 63.1899 124.903C63.3323 124.674 63.4717 124.479 63.4996 124.472C63.5277 124.463 65.183 124.547 67.1788 124.656Z" fill="#0666A6"/>
<path d="M114.428 74.0207C114.493 74.066 114.787 74.662 115.081 75.3419C115.376 76.024 115.874 76.9146 116.188 77.3225C118.025 79.7065 121.092 81.175 124.009 81.0662C125.225 81.0209 125.31 81.15 125.226 82.895C125.113 85.2518 123.615 87.9009 121.61 89.2924C120.691 89.9291 119.193 90.6249 118.89 90.5523C118.789 90.5297 118.447 89.9133 118.131 89.1836C116.582 85.6166 112.883 83.3165 109.006 83.5136C108.558 83.5363 108.298 83.559 108.154 83.4411C107.947 83.2734 107.979 82.8179 108.03 81.6554C108.136 79.2782 109.488 76.8353 111.518 75.3577C112.362 74.7436 114.233 73.8847 114.428 74.0207Z" fill="#0667A6"/>
<path d="M110.012 84.7601C111.316 84.8259 112.999 85.4037 114.161 86.1833C115.419 87.0308 116.251 88.0597 116.9 89.5757C117.424 90.7995 117.427 90.8199 117.078 90.8561C115.386 91.0351 112.715 90.1944 111.262 89.0205C110.268 88.2183 109.085 86.7158 108.651 85.7051C108.361 85.0276 108.361 84.9528 108.65 84.8349C108.823 84.7647 109.436 84.7307 110.012 84.7601Z" fill="#0667A6"/>
<path fill-rule="evenodd" clip-rule="evenodd" d="M85.3748 45.5781C89.0238 44.7078 93.0446 44.8212 97.0949 45.9112C98.9248 46.4052 102.409 47.7604 104.261 48.6986C108.508 50.8537 112.225 54.0127 114.352 57.2782C115.298 58.7308 116.521 61.5794 116.912 63.2428C117.565 66.0188 117.634 69.4362 117.092 72.2417C117.056 72.4252 116.8 72.491 115.833 72.5658C110.298 72.9873 106.239 77.9116 106.854 83.4592C106.99 84.6965 107.689 86.6182 108.389 87.6788L108.744 88.2181L107.984 88.8549C106.294 90.2713 104.6 91.291 98.8493 94.3571C86.9273 100.714 85.555 101.622 82.5632 105.121C80.7296 107.267 80.2188 107.995 79.5282 109.438L78.9165 110.719L74.3849 110.479L69.8532 110.236L71.0274 107.639L71.0691 107.546C71.8039 105.921 72.1295 105.201 72.343 104.451C72.5129 103.852 72.6119 103.234 72.7897 102.123L72.8024 102.044C73.3701 98.5019 73.3281 96.0953 72.6376 92.5986C72.2433 90.6021 69.3257 78.7637 68.8387 77.1842C68.3846 75.7134 67.9982 73.5447 67.8801 71.8043C67.4972 66.1752 69.0225 60.8452 72.5736 55.4087C74.5141 52.4377 76.8067 50.0265 79.362 48.2748C80.7704 47.3094 83.7805 45.9588 85.3748 45.5781ZM82.8353 57.0562C83.7025 57.0403 84.1421 58.1281 83.5111 58.7309C82.6446 59.5557 81.3016 58.2618 82.1123 57.3825C82.2717 57.2103 82.4163 57.0675 82.434 57.0652C82.4517 57.063 82.6322 57.0584 82.8353 57.0562ZM88.9308 54.8444C89.399 54.8988 89.5829 55.0325 89.7681 55.4585C89.9703 55.9231 89.7209 56.4443 89.1891 56.6686C88.3849 57.0063 87.6 56.2131 87.9317 55.3973C88.1113 54.9554 88.4171 54.7855 88.9308 54.8444ZM95.1132 52.6304C95.621 52.7369 95.9754 53.4801 95.7498 53.9651C95.4111 54.6925 94.2238 54.6994 93.9136 53.9742C93.7348 53.5572 94.0009 52.8433 94.3979 52.6757C94.57 52.6031 94.8917 52.5828 95.1132 52.6304ZM81.1848 61.2735C82.0286 61.4525 82.1239 62.7533 81.3181 63.0909C80.5255 63.4263 79.8025 62.7828 80.0301 61.9488C80.1836 61.3845 80.5892 61.1466 81.1848 61.2735ZM87.2463 59.0436C88.0324 59.3586 88.1371 60.4101 87.4229 60.818C86.6666 61.2485 85.75 60.4599 86.0404 59.626C86.1966 59.1773 86.8255 58.8736 87.2463 59.0436ZM93.4223 56.8885C93.9354 57.208 94.0658 57.659 93.7887 58.1598C93.4813 58.7173 93.1339 58.8668 92.6252 58.6629C92.128 58.4612 91.8392 57.8198 92.0462 57.3757C92.2763 56.8817 92.9981 56.6256 93.4223 56.8885ZM99.186 54.6042C99.8457 54.7809 100.1 55.3769 99.7713 55.9707C99.6367 56.2132 99.4494 56.4465 99.3549 56.4851C98.9842 56.6414 98.2015 56.2925 98.0315 55.8959C97.8617 55.4993 98.1521 54.6993 98.5233 54.543C98.6176 54.5022 98.9159 54.5294 99.186 54.6042ZM79.4937 65.5339C79.6857 65.6517 79.8993 65.8806 79.968 66.0415C80.1276 66.4154 79.7964 67.17 79.4001 67.3377C78.6744 67.6436 77.7863 66.7304 78.1178 66.0188C78.3479 65.5248 79.0698 65.271 79.4937 65.5339ZM85.1252 63.168C85.8942 63.202 86.2816 64.2716 85.728 64.8314C85.0059 65.5611 83.8095 64.8744 84.1215 63.909C84.2815 63.415 84.6456 63.1453 85.1252 63.168ZM91.1744 60.929C91.641 60.988 92.0543 61.4706 92.0171 61.9171C91.9759 62.4179 91.8448 62.5879 91.3309 62.8077C90.8446 63.0139 90.5759 62.9255 90.2004 62.4315C90.0016 62.1709 89.9907 61.9873 90.1506 61.5953C90.3684 61.0582 90.6661 60.8633 91.1744 60.929ZM97.474 58.8555C98.0349 59.1614 98.1861 59.5059 97.9814 60.0112C97.6361 60.861 96.5284 60.852 96.162 59.9954C95.809 59.1705 96.6755 58.4181 97.474 58.8555ZM103.429 56.5735C103.648 56.6596 103.894 56.8885 103.976 57.0788C104.057 57.2692 104.052 57.6046 103.964 57.8221C103.876 58.0374 103.646 58.2822 103.454 58.3637C103.263 58.4431 102.926 58.4385 102.707 58.3501C102.489 58.2618 102.242 58.0329 102.161 57.8425C102.079 57.6522 102.084 57.319 102.173 57.1015C102.261 56.8839 102.49 56.6392 102.682 56.5599C102.874 56.4783 103.21 56.4851 103.429 56.5735ZM77.3943 69.6288C77.9346 69.7852 78.2942 70.533 78.0352 70.9636C77.5943 71.6978 76.5659 71.6933 76.2494 70.9522C76.0383 70.4605 76.2687 69.801 76.7185 69.6129C76.855 69.554 77.1592 69.5631 77.3943 69.6288ZM83.5125 67.4601C84.0625 67.7026 84.2616 68.14 84.0528 68.6544C83.7077 69.5042 82.6 69.4951 82.2336 68.6385C81.8915 67.8408 82.6936 67.102 83.5125 67.4601ZM89.5006 65.2166C89.7194 65.305 89.9656 65.5316 90.0472 65.7242C90.1288 65.9146 90.1236 66.2477 90.0354 66.4653C89.947 66.6828 89.7178 66.9253 89.526 67.0069C89.3339 67.0884 88.9977 67.0817 88.7789 66.9933C88.5599 66.9049 88.3139 66.6783 88.2323 66.4879C88.1505 66.2953 88.1559 65.9622 88.2441 65.7446C88.3323 65.5271 88.5615 65.2846 88.7535 65.203C88.9453 65.1237 89.2816 65.1282 89.5006 65.2166ZM95.5356 62.989C96.074 63.2382 96.2651 64.0178 95.901 64.4824C95.638 64.82 95.5596 64.8518 95.135 64.8064C94.0547 64.6886 93.7592 63.4241 94.7178 63.0207C94.9964 62.9051 95.3225 62.8915 95.5356 62.989ZM101.177 60.6367C102.013 60.6208 102.449 61.7018 101.863 62.3363C101.276 62.9731 100.194 62.5244 100.159 61.6293C100.146 61.3211 100.561 60.6616 100.777 60.6458C100.793 60.6458 100.973 60.6412 101.177 60.6367ZM81.5927 71.6276C82.0908 71.8564 82.3488 72.5748 82.0846 72.9941C81.9649 73.1844 81.7525 73.3884 81.6124 73.4473C81.2696 73.5923 80.4101 73.2297 80.2591 72.8785C79.9578 72.1737 80.8873 71.3012 81.5927 71.6276ZM87.247 69.2821C87.7791 69.273 88.2412 69.7308 88.228 70.2565C88.2126 70.8661 87.7936 71.265 87.196 71.2378C86.4168 71.2038 85.9958 70.1817 86.5242 69.6084C86.6834 69.4362 86.828 69.2934 86.8457 69.2911C86.8636 69.2889 87.0439 69.2843 87.247 69.2821ZM99.5825 64.9039C100.08 65.1056 100.369 65.7469 100.162 66.191C99.8162 66.9321 98.6341 66.923 98.3142 66.1752C98.2326 65.9848 98.2378 65.6494 98.326 65.4341C98.4144 65.2166 98.6436 64.9719 98.8354 64.8925C99.0275 64.811 99.3635 64.8155 99.5825 64.9039ZM105.629 62.683C106.401 63.0388 106.414 64.1583 105.649 64.4801C105.261 64.6432 104.452 64.3487 104.297 63.9861C104.256 63.8909 104.283 63.5963 104.356 63.3266C104.517 62.7374 105.103 62.4405 105.629 62.683ZM79.5871 75.786C80.182 75.9469 80.482 76.5293 80.2387 77.0505C79.8875 77.8051 78.7519 77.83 78.4406 77.0913C78.2556 76.6516 78.2903 76.4273 78.5995 76.0511C78.9215 75.6591 79.0199 75.6319 79.5871 75.786ZM85.5965 73.4994C86.1043 73.6082 86.4587 74.3515 86.2331 74.8342C85.894 75.5639 84.7069 75.5684 84.396 74.8433C84.2308 74.458 84.5364 73.692 84.92 73.5311C85.0705 73.4677 85.375 73.4541 85.5965 73.4994ZM97.7588 69.1099C98.2673 69.3161 98.4128 69.6628 98.2457 70.2747C98.0034 71.163 96.8591 71.2423 96.4962 70.3948C96.1384 69.5585 96.9131 68.77 97.7588 69.1099ZM103.19 66.7893C104.049 66.7123 104.584 67.4714 104.183 68.1966C104.049 68.4391 103.861 68.6725 103.767 68.711C103.402 68.8651 102.613 68.5184 102.448 68.1331C102.215 67.5892 102.629 66.8392 103.19 66.7893ZM83.8304 77.7552C84.0494 77.8436 84.2906 78.0589 84.3666 78.238C84.5375 78.6368 84.2217 79.3914 83.8118 79.5637C83.3849 79.7427 82.7423 79.4458 82.5415 78.9767C82.2084 78.1994 83.0205 77.4289 83.8304 77.7552ZM89.263 75.4347C90.3245 75.3305 90.8185 76.5157 90.0028 77.2114C89.6529 77.5083 88.8379 77.293 88.5726 76.8329C88.25 76.2755 88.6341 75.4959 89.263 75.4347ZM95.5542 73.1957C96.303 73.2456 96.6864 74.3334 96.1314 74.8319C95.7351 75.19 95.1944 75.2375 94.8316 74.9475C94.421 74.6189 94.3555 74.3311 94.5702 73.8008C94.7926 73.2547 94.9502 73.1572 95.5542 73.1957ZM101.841 71.086C102.686 71.4259 102.661 72.4525 101.797 72.815C100.963 73.1663 100.195 72.2983 100.61 71.4712C100.865 70.9658 101.247 70.8457 101.841 71.086ZM107.841 68.7994C108.992 69.2617 108.402 70.8843 107.177 70.6237C106.895 70.5647 106.713 70.397 106.573 70.0684C106.225 69.2594 107.016 68.4663 107.841 68.7994ZM81.6255 81.8412C82.1291 81.8729 82.5925 82.5958 82.4628 83.1464C82.3454 83.6473 81.5698 83.9396 81.0674 83.6745C80.5348 83.3935 80.4067 83.0241 80.6416 82.4462C80.864 81.8978 81.0216 81.8004 81.6255 81.8412ZM87.8934 79.7223C88.4581 79.9489 88.6334 80.2616 88.5132 80.8236C88.4055 81.329 87.6583 81.678 87.1699 81.4536C86.6718 81.2247 86.4138 80.5064 86.6782 80.0871C86.9849 79.5977 87.3286 79.4957 87.8934 79.7223ZM93.9123 77.4425C94.1313 77.5309 94.3773 77.7598 94.4589 77.9501C94.5405 78.1405 94.5353 78.4736 94.4471 78.6912C94.3589 78.9087 94.1297 79.1535 93.9377 79.2328C93.7459 79.3144 93.4096 79.3076 93.1906 79.2192C92.9718 79.1331 92.7256 78.9042 92.644 78.7138C92.5622 78.5235 92.5676 78.1881 92.656 77.9705C92.7442 77.753 92.9734 77.5105 93.1652 77.4289C93.3573 77.3496 93.6935 77.3541 93.9123 77.4425ZM99.9328 75.2081C100.666 75.5458 100.675 76.7264 99.9466 77.0323C99.5131 77.2159 98.8046 76.9395 98.6241 76.5179C98.3011 75.7633 99.195 74.8682 99.9328 75.2081ZM105.747 72.9125C106.886 73.1459 106.73 74.8886 105.573 74.8568C104.533 74.8297 104.175 73.5719 105.076 73.1119C105.335 72.9805 105.637 72.8898 105.747 72.9125ZM86.0044 83.8535C86.7965 84.2184 86.7759 85.3582 85.9708 85.6959C85.6217 85.8432 84.8272 85.4693 84.6604 85.0795C84.3684 84.3974 85.3136 83.534 86.0044 83.8535ZM91.9772 81.5896C92.4706 81.7052 92.7642 82.4825 92.5007 82.9742C92.3862 83.1895 92.1806 83.4116 92.0441 83.4683C91.5943 83.6586 90.9561 83.364 90.7448 82.8723C90.5204 82.3465 90.7162 81.8978 91.2717 81.6644C91.4728 81.5805 91.7904 81.5465 91.9772 81.5896ZM75.645 88.3496C75.7608 88.3473 76.2473 88.6759 76.7264 89.0793C79.6973 91.5788 84.7926 93.9039 88.7755 94.5747C90.013 94.7832 90.5262 95.1548 90.2472 95.6398C90.0957 95.9049 89.7339 96.0817 88.2457 96.6278C87.235 96.9972 85.857 97.6114 85.1397 98.0125C84.0299 98.6311 81.4861 100.428 80.9146 100.997C80.6588 101.253 79.3679 100.895 78.169 100.238L77.1984 99.7053L77.0483 97.7609C76.8404 95.0642 76.5788 93.8903 75.6189 91.3431C74.6531 88.7801 74.6567 88.3677 75.645 88.3496ZM97.9562 79.4028C98.7244 79.711 98.884 80.452 98.3017 81.0072C97.8046 81.4808 97.0573 81.3063 96.7716 80.6514C96.5699 80.1868 96.6914 79.7563 97.1104 79.4481C97.3727 79.2555 97.5627 79.2441 97.9562 79.4028ZM103.994 77.1298C104.851 77.4742 104.843 78.5756 103.982 78.9382C103.203 79.2645 102.415 78.4555 102.738 77.6601C102.826 77.4425 103.055 77.1978 103.247 77.1185C103.439 77.0369 103.775 77.0437 103.994 77.1298ZM90.0658 85.7752C90.9223 86.1196 90.9146 87.2187 90.0531 87.5813C89.2496 87.919 88.5037 87.1213 88.8635 86.31C89.1056 85.7639 89.548 85.5667 90.0658 85.7752ZM96.103 83.5498C96.8839 83.9079 96.902 85.0274 96.1318 85.3514C95.3803 85.6664 94.635 85.0614 94.8232 84.2863C94.974 83.6654 95.5888 83.3119 96.103 83.5498ZM102.022 81.2769C102.538 81.4083 102.813 81.9295 102.661 82.4893C102.502 83.0717 102.059 83.3119 101.458 83.1419C100.948 82.9946 100.664 82.4122 100.846 81.8887C100.996 81.4604 101.571 81.1613 102.022 81.2769ZM73.8632 111.918L78.2871 112.16L77.7051 113.522C77.385 114.27 77.0359 114.9 76.9295 114.92C76.8234 114.941 74.7506 114.852 72.3236 114.723L67.9107 114.487L68.5541 113.119C68.9083 112.364 69.2522 111.732 69.3186 111.711C69.3848 111.691 71.4301 111.784 73.8632 111.918ZM71.9463 116.183L76.4183 116.43L75.781 117.81L75.1435 119.192L73.2898 119.11C72.2703 119.067 70.2273 118.972 68.7498 118.902L66.0634 118.773L66.6434 117.395C66.9624 116.638 67.2798 115.999 67.3489 115.976C67.4176 115.954 69.4866 116.047 71.9463 116.183ZM69.9818 120.445L74.4542 120.692L73.8575 122.075L73.2608 123.457L70.6055 123.33C69.1452 123.262 67.0818 123.162 66.0201 123.112L64.0898 123.02L64.7276 121.633C65.0783 120.869 65.3975 120.234 65.4372 120.221C65.4769 120.207 67.5217 120.307 69.9818 120.445Z" fill="#0666A6"/>
<path d="M117.211 73.7239C118.696 73.8123 121.036 74.7573 122.138 75.7159C123.208 76.645 124.004 77.692 124.47 78.782C124.928 79.8516 124.854 79.906 123.074 79.7972C120.866 79.6635 118.61 78.467 117.242 76.7039C116.518 75.7703 115.675 73.8508 115.941 73.7398C116.044 73.6945 116.616 73.6877 117.211 73.7239Z" fill="#0667A6"/>
</svg>
