<svg width="423" height="178" viewBox="0 0 423 178" fill="none" xmlns="http://www.w3.org/2000/svg">
<path d="M89.7908 29.7433V118.64H52.5772L30.0442 94.304V148.214H0V29.7433H89.7908ZM30.0442 89.0646H59.9174V59.319H30.0442V89.0646ZM184.65 29.7433V118.64L94.8586 118.808V85.0082L123.025 59.319H94.8586V29.7433H184.65ZM125.073 89.0646H154.605V59.319H125.073V89.0646ZM278.996 118.808H189.547V30.251H226.591L249.124 54.4196V0.675308H278.996V118.808ZM219.249 89.2323H249.124V59.6566H219.249V89.2323ZM284.406 118.64V29.9133H374.025V65.5736L348.077 89.0646H374.025V118.64H284.406ZM314.108 89.0646H344.15V59.6566H314.108V89.0646ZM422.27 118.64H379.423V0H409.295V89.2323H422.27V118.64Z" fill="#BDEC00"/>
<path d="M62.6294 59.1128H26.7812V91.222H62.6294V59.1128Z" fill="#BDEC00"/>
<path d="M20.7843 124.979C22.7798 125.09 24.8101 125.189 25.2962 125.198L26.1804 125.219L25.3866 127.052C24.7502 128.523 24.5408 129.269 24.3283 130.819C24.0234 133.042 23.7253 133.989 23.2959 134.102C22.929 134.197 13.7683 130.143 13.632 129.826C13.476 129.461 14.0034 128.598 15.3186 127.064C15.9883 126.282 16.6528 125.455 16.7954 125.226C16.9378 124.997 17.0772 124.802 17.1051 124.795C17.1332 124.786 18.7885 124.87 20.7843 124.979Z" fill="#0666A6"/>
<path d="M68.0333 74.3435C68.0986 74.3888 68.3929 74.9848 68.6869 75.6647C68.9812 76.3468 69.4791 77.2373 69.7935 77.6453C71.6302 80.0293 74.6974 81.4977 77.6141 81.3889C78.8307 81.3436 78.916 81.4728 78.8318 83.2177C78.718 85.5745 77.2203 88.2237 75.2155 89.6151C74.2961 90.2519 72.7982 90.9476 72.4951 90.8751C72.3942 90.8524 72.0528 90.236 71.736 89.5063C70.1878 85.9394 66.488 83.6392 62.6118 83.8364C62.1631 83.8591 61.9035 83.8817 61.7596 83.7639C61.5528 83.5962 61.5845 83.1407 61.6358 81.9782C61.7412 79.601 63.0938 77.158 65.1238 75.6805C65.9672 75.0664 67.8383 74.2075 68.0333 74.3435Z" fill="#0667A6"/>
<path d="M63.6171 85.0829C64.9217 85.1486 66.6048 85.7265 67.7663 86.5061C69.0243 87.3536 69.8564 88.3824 70.5053 89.8985C71.0299 91.1222 71.0326 91.1426 70.6832 91.1789C68.9912 91.3579 66.3205 90.5172 64.8679 89.3433C63.8733 88.5411 62.6901 87.0386 62.2568 86.0279C61.9668 85.3503 61.9666 85.2755 62.2552 85.1577C62.4289 85.0874 63.0417 85.0534 63.6171 85.0829Z" fill="#0667A6"/>
<path fill-rule="evenodd" clip-rule="evenodd" d="M38.9802 45.9008C42.6293 45.0306 46.6501 45.1439 50.7004 46.2339C52.5302 46.728 56.0147 48.0831 57.8665 49.0213C62.1131 51.1764 65.8304 54.3355 67.9572 57.601C68.9031 59.0536 70.126 61.9022 70.5173 63.5655C71.1707 66.3416 71.2392 69.7589 70.6973 72.5644C70.6615 72.748 70.4058 72.8137 69.4381 72.8885C63.9031 73.31 59.8446 78.2344 60.459 83.7819C60.5957 85.0192 61.2949 86.9409 61.9941 88.0015L62.3496 88.5409L61.5896 89.1777C59.899 90.594 58.2057 91.6138 52.4547 94.6799C40.5328 101.036 39.1605 101.945 36.1687 105.444C34.335 107.59 33.8242 108.318 33.1336 109.761L32.522 111.042L27.9903 110.801L23.4587 110.559L24.6329 107.962L24.6746 107.869C25.4094 106.244 25.7349 105.523 25.9485 104.773C26.1183 104.175 26.2174 103.556 26.3951 102.446L26.4078 102.367C26.9755 98.8247 26.9336 96.418 26.243 92.9214C25.8488 90.9249 22.9311 79.0864 22.4441 77.5069C21.99 76.0362 21.6037 73.8675 21.4856 72.1271C21.1027 66.4979 22.628 61.1679 26.1791 55.7314C28.1196 52.7605 30.4121 50.3493 32.9675 48.5975C34.3758 47.6322 37.386 46.2815 38.9802 45.9008ZM36.4408 57.3789C37.308 57.3631 37.7476 58.4508 37.1166 59.0536C36.2501 59.8785 34.907 58.5845 35.7178 57.7052C35.8772 57.533 36.0218 57.3903 36.0395 57.388C36.0572 57.3857 36.2376 57.3812 36.4408 57.3789ZM42.5363 55.1671C43.0045 55.2215 43.1883 55.3552 43.3736 55.7813C43.5758 56.2458 43.3264 56.7671 42.7945 56.9914C41.9904 57.3291 41.2055 56.5359 41.5372 55.7201C41.7167 55.2782 42.0226 55.1082 42.5363 55.1671ZM48.7187 52.9531C49.2265 53.0596 49.5809 53.8029 49.3553 54.2879C49.0166 55.0153 47.8293 55.0221 47.5191 54.2969C47.3402 53.88 47.6064 53.1661 48.0034 52.9984C48.1755 52.9259 48.4972 52.9055 48.7187 52.9531ZM34.7903 61.5962C35.6341 61.7753 35.7293 63.076 34.9236 63.4137C34.131 63.7491 33.408 63.1055 33.6356 62.2716C33.7891 61.7073 34.1947 61.4693 34.7903 61.5962ZM40.8518 59.3663C41.6378 59.6813 41.7426 60.7328 41.0284 61.1407C40.2721 61.5713 39.3555 60.7827 39.6459 59.9487C39.8021 59.5 40.431 59.1964 40.8518 59.3663ZM47.0278 57.2112C47.5409 57.5307 47.6712 57.9817 47.3942 58.4825C47.0868 59.04 46.7394 59.1896 46.2307 58.9856C45.7335 58.7839 45.4446 58.1426 45.6516 57.6984C45.8817 57.2044 46.6036 56.9483 47.0278 57.2112ZM52.7914 54.9269C53.4512 55.1037 53.7058 55.6997 53.3768 56.2934C53.2421 56.5359 53.0549 56.7693 52.9603 56.8078C52.5896 56.9642 51.807 56.6152 51.637 56.2186C51.4672 55.8221 51.7576 55.0221 52.1287 54.8657C52.223 54.8249 52.5214 54.8522 52.7914 54.9269ZM33.0992 65.8566C33.2912 65.9745 33.5048 66.2033 33.5735 66.3642C33.7331 66.7382 33.4019 67.4928 33.0056 67.6605C32.2798 67.9664 31.3918 67.0531 31.7232 66.3416C31.9534 65.8475 32.6752 65.5937 33.0992 65.8566ZM38.7306 63.4907C39.4997 63.5247 39.8871 64.5944 39.3335 65.1541C38.6114 65.8838 37.415 65.1971 37.7269 64.2318C37.887 63.7377 38.2511 63.4681 38.7306 63.4907ZM44.7799 61.2518C45.2465 61.3107 45.6598 61.7934 45.6226 62.2398C45.5813 62.7406 45.4503 62.9106 44.9363 63.1304C44.45 63.3366 44.1814 63.2483 43.8059 62.7542C43.6071 62.4936 43.5962 62.3101 43.756 61.918C43.9739 61.3809 44.2716 61.1861 44.7799 61.2518ZM51.0795 59.1782C51.6404 59.4842 51.7916 59.8286 51.5869 60.334C51.2416 61.1838 50.1338 61.1747 49.7675 60.3181C49.4145 59.4932 50.281 58.7409 51.0795 59.1782ZM57.0344 56.8962C57.2535 56.9823 57.4994 57.2112 57.5811 57.4016C57.6627 57.5919 57.6574 57.9273 57.5693 58.1449C57.4811 58.3602 57.2519 58.6049 57.0598 58.6865C56.868 58.7658 56.5318 58.7613 56.3128 58.6729C56.094 58.5845 55.8478 58.3556 55.7662 58.1653C55.6843 57.9749 55.6898 57.6418 55.7782 57.4242C55.8664 57.2067 56.0956 56.9619 56.2874 56.8826C56.4794 56.801 56.8157 56.8078 57.0344 56.8962ZM30.9998 69.9516C31.54 70.1079 31.8996 70.8558 31.6407 71.2863C31.1997 72.0206 30.1714 72.016 29.8549 71.275C29.6438 70.7832 29.8741 70.1238 30.3239 69.9357C30.4604 69.8768 30.7647 69.8858 30.9998 69.9516ZM37.118 67.7828C37.668 68.0253 37.8671 68.4627 37.6583 68.9771C37.3132 69.8269 36.2054 69.8179 35.8391 68.9613C35.4969 68.1636 36.2991 67.4248 37.118 67.7828ZM43.106 65.5394C43.3248 65.6277 43.571 65.8544 43.6527 66.047C43.7343 66.2373 43.7291 66.5705 43.6409 66.788C43.5524 67.0056 43.3232 67.248 43.1314 67.3296C42.9394 67.4112 42.6032 67.4044 42.3844 67.316C42.1654 67.2276 41.9194 67.001 41.8378 66.8107C41.7559 66.618 41.7614 66.2849 41.8496 66.0674C41.9378 65.8498 42.167 65.6073 42.359 65.5257C42.5508 65.4464 42.887 65.451 43.106 65.5394ZM49.141 63.3117C49.6795 63.561 49.8706 64.3406 49.5065 64.8051C49.2435 65.1428 49.1651 65.1745 48.7404 65.1292C47.6601 65.0113 47.3647 63.7468 48.3233 63.3434C48.6019 63.2279 48.9279 63.2143 49.141 63.3117ZM54.782 60.9594C55.6181 60.9436 56.0541 62.0245 55.4685 62.659C54.8811 63.2958 53.7992 62.8471 53.764 61.952C53.7518 61.6438 54.166 60.9844 54.3823 60.9685C54.3984 60.9685 54.5784 60.964 54.782 60.9594ZM35.1981 71.9503C35.6962 72.1792 35.9542 72.8976 35.6901 73.3168C35.5704 73.5072 35.358 73.7111 35.2179 73.77C34.8751 73.9151 34.0156 73.5525 33.8646 73.2012C33.5633 72.4965 34.4928 71.624 35.1981 71.9503ZM40.8525 69.6048C41.3846 69.5958 41.8466 70.0536 41.8335 70.5793C41.8181 71.1889 41.3991 71.5877 40.8015 71.5605C40.0222 71.5266 39.6012 70.5045 40.1297 69.9312C40.2889 69.7589 40.4335 69.6162 40.4512 69.6139C40.4691 69.6116 40.6493 69.6071 40.8525 69.6048ZM53.1879 65.2266C53.6854 65.4283 53.9742 66.0696 53.7672 66.5138C53.4217 67.2548 52.2396 67.2458 51.9197 66.4979C51.8381 66.3076 51.8433 65.9722 51.9315 65.7569C52.0199 65.5393 52.2491 65.2946 52.4409 65.2153C52.6329 65.1337 52.9689 65.1383 53.1879 65.2266ZM59.2343 63.0058C60.0069 63.3616 60.0194 64.481 59.2544 64.8028C58.8665 64.966 58.0574 64.6714 57.9021 64.3088C57.862 64.2137 57.8889 63.9191 57.9619 63.6494C58.1229 63.0602 58.7083 62.7633 59.2343 63.0058ZM33.1926 76.1087C33.7875 76.2696 34.0874 76.852 33.8442 77.3732C33.493 78.1279 32.3574 78.1528 32.0461 77.414C31.8611 76.9744 31.8958 76.75 32.205 76.3739C32.527 75.9818 32.6253 75.9546 33.1926 76.1087ZM39.202 73.8222C39.7098 73.9309 40.0642 74.6742 39.8386 75.1569C39.4994 75.8866 38.3123 75.8912 38.0015 75.166C37.8362 74.7808 38.1418 74.0148 38.5254 73.8539C38.676 73.7904 38.9805 73.7769 39.202 73.8222ZM51.3642 69.4326C51.8728 69.6389 52.0183 69.9856 51.8512 70.5974C51.6089 71.4858 50.4646 71.5651 50.1016 70.7175C49.7439 69.8813 50.5186 69.0927 51.3642 69.4326ZM56.7959 67.1121C57.6545 67.035 58.1896 67.7942 57.7887 68.5193C57.6541 68.7618 57.4666 68.9952 57.3722 69.0338C57.0079 69.1879 56.2187 68.8411 56.0539 68.4559C55.8206 67.912 56.2348 67.1619 56.7959 67.1121ZM37.4358 78.078C37.6548 78.1664 37.8961 78.3817 37.972 78.5607C38.143 78.9596 37.8272 79.7142 37.4172 79.8864C36.9903 80.0654 36.3478 79.7686 36.1469 79.2995C35.8139 78.5222 36.626 77.7517 37.4358 78.078ZM42.8684 75.7574C43.9299 75.6532 44.424 76.8384 43.6082 77.5341C43.2584 77.831 42.4433 77.6157 42.1781 77.1557C41.8555 76.5982 42.2395 75.8186 42.8684 75.7574ZM49.1596 73.5185C49.9085 73.5684 50.2919 74.6561 49.7369 75.1547C49.3405 75.5127 48.7998 75.5603 48.4371 75.2702C48.0265 74.9416 47.961 74.6538 48.1757 74.1236C48.3981 73.5774 48.5557 73.48 49.1596 73.5185ZM55.4463 71.4087C56.2919 71.7486 56.2661 72.7752 55.4025 73.1378C54.5684 73.489 53.8008 72.6211 54.2157 71.794C54.47 71.2886 54.8521 71.1685 55.4463 71.4087ZM61.4464 69.1221C62.5974 69.5844 62.007 71.207 60.7821 70.9464C60.5005 70.8875 60.3184 70.7198 60.1781 70.3912C59.8308 69.5822 60.6211 68.789 61.4464 69.1221ZM35.231 82.1639C35.7345 82.1956 36.198 82.9185 36.0683 83.4692C35.9508 83.97 35.1752 84.2624 34.6728 83.9972C34.1403 83.7162 34.0122 83.3468 34.2471 82.769C34.4695 82.2206 34.627 82.1231 35.231 82.1639ZM41.4988 80.0451C42.0636 80.2717 42.2389 80.5844 42.1187 81.1464C42.011 81.6517 41.2637 82.0007 40.7754 81.7764C40.2773 81.5475 40.0193 80.8291 40.2836 80.4099C40.5904 79.9204 40.9341 79.8184 41.4988 80.0451ZM47.5177 77.7653C47.7367 77.8537 47.9827 78.0825 48.0644 78.2729C48.146 78.4632 48.1408 78.7964 48.0526 79.0139C47.9644 79.2315 47.7352 79.4762 47.5431 79.5556C47.3513 79.6371 47.0151 79.6303 46.7961 79.542C46.5773 79.4559 46.3311 79.227 46.2495 79.0366C46.1676 78.8462 46.1731 78.5108 46.2615 78.2933C46.3497 78.0757 46.5789 77.8333 46.7707 77.7517C46.9627 77.6724 47.299 77.6769 47.5177 77.7653ZM53.5382 75.5309C54.2717 75.8685 54.2807 77.0492 53.5521 77.3551C53.1186 77.5387 52.4101 77.2622 52.2296 76.8407C51.9065 76.0861 52.8005 75.1909 53.5382 75.5309ZM59.3522 73.2352C60.4916 73.4686 60.3357 75.2113 59.178 75.1796C58.1383 75.1524 57.7806 73.8947 58.6813 73.4346C58.9409 73.3032 59.2429 73.2126 59.3522 73.2352ZM39.6098 84.1763C40.402 84.5411 40.3813 85.681 39.5763 86.0186C39.2271 86.1659 38.4327 85.792 38.2658 85.4023C37.9738 84.7201 38.919 83.8567 39.6098 84.1763ZM45.5827 81.9123C46.076 82.0279 46.3696 82.8052 46.1062 83.297C45.9917 83.5123 45.7861 83.7344 45.6496 83.791C45.1998 83.9814 44.5616 83.6868 44.3503 83.195C44.1258 82.6693 44.3217 82.2206 44.8772 81.9871C45.0783 81.9033 45.3959 81.8693 45.5827 81.9123ZM29.2504 88.6723C29.3663 88.67 29.8528 88.9986 30.3319 89.402C33.3028 91.9016 38.398 94.2267 42.381 94.8975C43.6184 95.106 44.1317 95.4776 43.8526 95.9625C43.7012 96.2277 43.3393 96.4044 41.8512 96.9506C40.8405 97.32 39.4625 97.9341 38.7451 98.3352C37.6353 98.9539 35.0916 100.751 34.52 101.32C34.2643 101.576 32.9734 101.218 31.7745 100.561L30.8039 100.028L30.6538 98.0837C30.4459 95.3869 30.1843 94.2131 29.2244 91.6659C28.2585 89.1029 28.2622 88.6904 29.2504 88.6723ZM51.5617 79.7255C52.3298 80.0337 52.4894 80.7748 51.9072 81.33C51.41 81.8036 50.6628 81.6291 50.3771 80.9742C50.1753 80.5096 50.2968 80.079 50.7158 79.7708C50.9781 79.5782 51.1681 79.5669 51.5617 79.7255ZM57.5999 77.4525C58.4562 77.797 58.4485 78.8984 57.5872 79.2609C56.8084 79.5873 56.0201 78.7783 56.3434 77.9828C56.4316 77.7653 56.6608 77.5205 56.8528 77.4412C57.0446 77.3596 57.3809 77.3664 57.5999 77.4525ZM43.6713 86.0979C44.5278 86.4424 44.5201 87.5415 43.6586 87.9041C42.8551 88.2417 42.1092 87.4441 42.469 86.6328C42.7111 86.0866 43.1534 85.8895 43.6713 86.0979ZM49.7085 83.8726C50.4893 84.2306 50.5075 85.3501 49.7373 85.6742C48.9857 85.9892 48.2405 85.3841 48.4287 84.6091C48.5795 83.9882 49.1943 83.6346 49.7085 83.8726ZM55.6274 81.5996C56.1434 81.7311 56.4187 82.2523 56.2665 82.812C56.1074 83.3944 55.6642 83.6346 55.0638 83.4647C54.5537 83.3174 54.2692 82.735 54.4519 82.2115C54.6011 81.7832 55.1765 81.484 55.6274 81.5996ZM27.4687 112.24L31.8926 112.483L31.3106 113.845C30.9905 114.593 30.6413 115.223 30.535 115.243C30.4289 115.263 28.356 115.175 25.929 115.046L21.5162 114.81L22.1596 113.441C22.5137 112.687 22.8577 112.055 22.9241 112.034C22.9903 112.014 25.0355 112.107 27.4687 112.24ZM25.5518 116.505L30.0238 116.752L29.3865 118.132L28.7489 119.515L26.8953 119.433C25.8757 119.39 23.8328 119.295 22.3553 119.225L19.6689 119.096L20.2488 117.718C20.5678 116.961 20.8852 116.322 20.9544 116.299C21.0231 116.276 23.0921 116.369 25.5518 116.505ZM23.5872 120.768L28.0597 121.015L27.463 122.397L26.8663 123.78L24.211 123.653C22.7507 123.585 20.6873 123.485 19.6256 123.435L17.6953 123.342L18.3331 121.955C18.6838 121.192 19.003 120.557 19.0427 120.544C19.0824 120.53 21.1271 120.63 23.5872 120.768Z" fill="#0666A6"/>
<path d="M70.8167 74.0467C72.3017 74.1351 74.6412 75.08 75.7437 76.0386C76.8131 76.9678 77.6094 78.0147 78.0755 79.1047C78.5337 80.1744 78.4596 80.2288 76.6791 80.12C74.4714 79.9863 72.2153 78.7898 70.8479 77.0267C70.1234 76.093 69.2807 74.1736 69.5461 74.0626C69.6491 74.0172 70.2211 74.0104 70.8167 74.0467Z" fill="#0667A6"/>
<path d="M61.9159 177.325C60.0312 177.325 58.4233 176.908 57.0918 176.076C55.7807 175.226 54.777 174.071 54.0805 172.609C53.4044 171.15 53.0664 169.495 53.0664 167.651V141.307C53.0664 139.482 53.4146 137.839 54.1111 136.38C54.8282 134.918 55.8523 133.763 57.1838 132.91C58.5153 132.058 60.0928 131.632 61.9159 131.632C63.2884 131.632 64.5175 131.886 65.603 132.394C66.6887 132.901 67.6106 133.599 68.3685 134.492C69.147 135.365 69.741 136.389 70.1507 137.565C70.5604 138.721 70.7651 139.97 70.7651 141.307V147.452H64.5583V141.307C64.5583 140.375 64.3637 139.593 63.9745 138.966C63.5854 138.336 62.9402 138.021 62.0388 138.021C61.2194 138.021 60.6254 138.347 60.2565 138.995C59.8879 139.643 59.7036 140.414 59.7036 141.307V167.651C59.7036 168.544 59.8981 169.314 60.2874 169.962C60.697 170.613 61.2808 170.937 62.0388 170.937C62.9606 170.937 63.6058 170.622 63.9745 169.994C64.3637 169.364 64.5583 168.584 64.5583 167.651V161.507H70.7651V167.651C70.7651 169.477 70.4067 171.118 69.6898 172.58C68.9729 174.039 67.9486 175.195 66.6171 176.047C65.306 176.899 63.7389 177.325 61.9159 177.325ZM81.1447 176.838L87.9662 132.12H96.0781L102.899 176.838H96.4468L95.2177 167.712H88.8266L87.5973 176.838H81.1447ZM89.7484 160.775H94.2959L92.3908 145.748L92.2065 143.376H91.8378L91.6533 145.748L89.7484 160.775ZM113.541 176.838V132.12H121.961L125.587 155.3L125.894 157.673H126.017L126.324 155.3L129.95 132.12H138.368V176.838H132.223V146.843H131.855L131.609 148.73L127.676 176.838H124.234L120.301 148.73L120.056 146.843H119.687V176.838H113.541ZM150.437 176.838V132.12H157.075C159.594 132.12 161.693 132.668 163.373 133.763C165.073 134.857 166.343 136.409 167.184 138.417C168.023 140.425 168.443 142.786 168.443 145.506C168.443 148.223 168.003 150.564 167.123 152.533C166.241 154.5 164.951 156.041 163.251 157.156C161.571 158.251 159.512 158.849 157.075 158.951V176.838H150.437ZM157.075 152.259C158.242 152.259 159.163 152.035 159.839 151.588C160.514 151.124 160.997 150.392 161.283 149.399C161.591 148.404 161.745 147.128 161.745 145.565C161.745 143.983 161.591 142.696 161.283 141.703C160.997 140.708 160.505 139.979 159.809 139.512C159.133 139.045 158.222 138.812 157.075 138.812V152.259ZM195.782 176.838V132.12H204.2L207.826 155.3L208.134 157.673H208.256L208.565 155.3L212.19 132.12H220.608V176.838H214.464V146.843H214.094L213.85 148.73L209.916 176.838H206.474L202.541 148.73L202.296 146.843H201.926V176.838H195.782ZM231.293 176.838L238.115 132.12H246.227L253.049 176.838H246.594L245.366 167.712H238.974L237.746 176.838H231.293ZM239.897 160.775H244.445L242.541 145.748L242.355 143.376H241.987L241.802 145.748L239.897 160.775ZM263.689 176.838V132.12H270.327V170.753H279.115V176.838H263.689ZM288.943 176.838V132.12H295.579V170.753H304.366V176.838H288.943ZM322.737 177.325C320.894 177.325 319.307 176.899 317.976 176.047C316.664 175.195 315.65 174.039 314.934 172.58C314.238 171.118 313.889 169.477 313.889 167.651V141.307C313.889 139.462 314.238 137.819 314.934 136.38C315.65 134.918 316.664 133.763 317.976 132.91C319.307 132.058 320.894 131.632 322.737 131.632C324.583 131.632 326.159 132.058 327.471 132.91C328.802 133.763 329.816 134.918 330.512 136.38C331.23 137.839 331.588 139.482 331.588 141.307V167.651C331.588 169.477 331.23 171.118 330.512 172.58C329.816 174.039 328.802 175.195 327.471 176.047C326.159 176.899 324.583 177.325 322.737 177.325ZM322.737 170.937C323.558 170.937 324.132 170.601 324.458 169.933C324.787 169.244 324.95 168.482 324.95 167.651V141.307C324.95 140.475 324.776 139.725 324.429 139.056C324.08 138.367 323.517 138.021 322.737 138.021C321.98 138.021 321.418 138.367 321.048 139.056C320.699 139.725 320.527 140.475 320.527 141.307V167.651C320.527 168.482 320.699 169.244 321.048 169.933C321.398 170.601 321.96 170.937 322.737 170.937ZM343.348 176.838V132.12H349.987C353.961 132.12 356.89 133.214 358.774 135.405C360.658 137.576 361.601 140.779 361.601 145.019C361.601 147.534 361.15 149.714 360.25 151.559C359.368 153.383 358.294 154.722 357.024 155.574L361.54 176.838H354.902L351.154 157.976H349.987V176.838H343.348ZM349.987 151.894C351.215 151.894 352.188 151.629 352.904 151.103C353.623 150.555 354.136 149.784 354.442 148.789C354.75 147.797 354.902 146.621 354.902 145.261C354.902 143.133 354.544 141.499 353.827 140.364C353.131 139.208 351.85 138.63 349.987 138.63V151.894ZM380.986 177.325C379.099 177.325 377.492 176.908 376.161 176.076C374.848 175.226 373.846 174.071 373.15 172.609C372.472 171.15 372.135 169.495 372.135 167.651V141.307C372.135 139.482 372.484 137.839 373.18 136.38C373.896 134.918 374.921 133.763 376.252 132.91C377.585 132.058 379.161 131.632 380.986 131.632C382.357 131.632 383.586 131.886 384.672 132.394C385.758 132.901 386.679 133.599 387.438 134.492C388.216 135.365 388.81 136.389 389.22 137.565C389.628 138.721 389.834 139.97 389.834 141.307V147.452H383.627V141.307C383.627 140.375 383.432 139.593 383.044 138.966C382.654 138.336 382.008 138.021 381.108 138.021C380.287 138.021 379.693 138.347 379.326 138.995C378.957 139.643 378.773 140.414 378.773 141.307V167.651C378.773 168.544 378.968 169.314 379.356 169.962C379.766 170.613 380.349 170.937 381.108 170.937C382.029 170.937 382.675 170.622 383.044 169.994C383.432 169.364 383.627 168.584 383.627 167.651V161.507H389.834V167.651C389.834 169.477 389.476 171.118 388.758 172.58C388.041 174.039 387.016 175.195 385.686 176.047C384.375 176.899 382.809 177.325 380.986 177.325ZM400.214 176.838L407.036 132.12H415.148L421.969 176.838H415.517L414.288 167.712H407.897L406.668 176.838H400.214ZM408.818 160.775H413.366L411.461 145.748L411.275 143.376H410.908L410.724 145.748L408.818 160.775Z" fill="#BDEC00"/>
</svg>
