<svg width="787" height="709" viewBox="0 0 787 709" fill="none" xmlns="http://www.w3.org/2000/svg">
<path fill-rule="evenodd" clip-rule="evenodd" d="M495.985 34.0029C495.388 35.1179 494.403 35.7238 493.795 35.3478C493.187 34.9728 492.97 35.1179 493.313 35.6729C493.655 36.2259 492.398 39.7828 490.519 43.5768C478.519 67.8068 479.701 98.0189 493.574 121.691C497.62 128.596 505.507 137.492 512.752 143.324C535.209 161.402 563.911 166.432 590.655 156.977C595.52 155.257 600.254 153.782 601.177 153.698C602.099 153.615 602.686 153.275 602.481 152.944C602.276 152.613 603.434 151.559 605.054 150.602C606.674 149.645 608 149.13 608 149.457C608 149.785 608.92 149.195 610.045 148.147C612.034 146.295 612.043 146.12 610.38 141.858C609.439 139.448 607.939 136.35 607.048 134.975C606.157 133.6 604.769 131.125 603.964 129.475C603.159 127.825 602.05 125.95 601.5 125.309C600.95 124.667 599.15 121.863 597.5 119.078C595.85 116.292 594.162 114.004 593.75 113.994C593.338 113.983 593 113.385 593 112.664C593 111.942 592.2 110.48 591.223 109.414C590.245 108.347 588.354 105.9 587.02 103.975C585.686 102.05 583.894 99.7999 583.036 98.9749C582.179 98.1499 580.191 95.7459 578.618 93.6329C574.827 88.5399 555.682 69.3598 550 64.9628C547.525 63.0478 544.5 60.4989 543.277 59.2999C542.054 58.1009 539.692 56.3148 538.027 55.3318C536.362 54.3478 535 53.2449 535 52.8809C535 52.5159 533.65 51.6579 532 50.9749C530.35 50.2919 529 49.3369 529 48.8539C529 48.3699 528.41 47.9749 527.689 47.9749C526.967 47.9749 525.411 47.0749 524.23 45.9749C523.05 44.8749 521.86 43.9749 521.586 43.9749C521.312 43.9749 518.706 42.5559 515.794 40.8209C507.178 35.6879 499.892 31.9749 498.434 31.9749C497.684 31.9749 496.582 32.8879 495.985 34.0029ZM461.439 681.975C461.439 697.1 461.578 703.288 461.748 695.725C461.917 688.163 461.917 675.788 461.748 668.225C461.578 660.663 461.439 666.85 461.439 681.975Z" fill="#FF521F"/>
<path fill-rule="evenodd" clip-rule="evenodd" d="M373 0.663831C296.705 6.42283 224.376 49.5308 182.878 113.975C172.472 130.135 173.916 128.787 169.371 126.586C156.947 120.57 141.859 120.54 127.589 126.502L123.88 128.052L131.893 133.781C140.833 140.171 155.281 152.948 157.643 156.553C158.912 158.489 158.975 159.521 158.006 162.456L156.832 166.014L150.666 165.405C134.302 163.79 115.736 172.626 106.613 186.371C103.025 191.776 97.143 207.451 98.276 208.585C98.605 208.913 103.065 207.79 108.187 206.089C117.622 202.955 132.047 199.656 141.902 198.378L147.303 197.677L146.722 201.576C146.402 203.72 145.35 210.2 144.384 215.975C142.174 229.184 141.865 267.676 143.853 281.975C150.795 331.892 169.765 374.783 201.828 413.06C233.728 451.14 281.937 481.349 330 493.375C351.72 498.809 362.116 500.141 387 500.674C411.871 501.208 424.604 500.168 444.852 495.948C530.539 478.091 601.914 414.594 630.296 330.975C639.142 304.913 642.143 286.931 642.73 256.475C643.239 230.063 642.107 217.27 637.374 195.975C618.896 112.835 558.84 44.5018 478.453 15.1538C445.917 3.27582 407.796 -1.96317 373 0.663831ZM378.5 7.56978C335.858 10.8008 298.95 22.5278 264.655 43.7418C231.439 64.2888 200.798 95.9328 181.485 129.637L179.673 132.799L183.946 137.137C189.448 142.724 193.446 149.747 195.552 157.529L197.23 163.727L200.697 159.888C204.922 155.212 214.875 148.798 221.561 146.443C228.897 143.859 241.145 143.419 249 145.456C258.476 147.915 264.615 151.584 272.453 159.475L279.406 166.475L273.453 167.281C257.019 169.505 235.182 175.409 222.668 181.012C218.164 183.029 218.259 183.107 227.5 184.973C246.544 188.819 262.25 205.454 265.272 224.98C266.388 232.186 265.363 243.259 263.008 249.453L261.937 252.27L252.939 242.681C242.737 231.812 219.785 212.975 216.742 212.975C216.385 212.975 217.187 215.337 218.526 218.225C227.91 238.469 221.537 264.287 204.003 277.055C198.789 280.852 185.107 287.416 184.232 286.54C184.068 286.376 185.158 280.445 186.653 273.359C189.131 261.613 189.377 258.487 189.436 237.975C189.471 225.6 189.115 212.331 188.645 208.488L187.79 201.501L185.328 204.488C174.132 218.072 164.298 237.431 159.828 254.688C155.862 269.996 154.825 292.931 157.418 307.975C161.484 331.566 166.183 342.072 178.354 354.784C193.111 370.197 210.858 378.76 234.777 382.007C254.616 384.7 290.475 381.423 316.5 374.537C327.619 371.596 326.424 371.516 294.834 373.097C272.226 374.228 272.16 374.225 269.088 372.037C264.35 368.664 261 362.179 261 356.382V351.464L268.75 349.162C311.989 336.315 339.049 329.621 368.5 324.487C379.946 322.492 385.158 321.066 390.5 318.468C394.64 316.455 400.564 314.576 405 313.869C412.079 312.74 412.838 312.359 418.528 307.074C421.844 303.995 427.537 299.064 431.181 296.117C437.709 290.837 437.803 290.692 437.653 286.117L437.5 281.475L444.406 279.236C448.204 278.004 451.512 276.797 451.756 276.552C452 276.308 447.853 268.878 442.54 260.042C430.554 240.106 429.784 239.764 425.625 252.533C423.837 258.023 422.377 260.98 421.551 260.783C420.086 260.433 383 225.056 383 224.009C383 223.634 376.138 216.568 367.75 208.307C325.34 166.537 323.794 164.969 343.5 183.699C380.684 219.041 383.498 221.664 384.664 222.07C385.304 222.293 393.542 229.853 402.969 238.87C412.555 248.038 420.472 254.87 420.932 254.37C421.384 253.878 422.512 251.139 423.438 248.283C424.957 243.6 424.972 242.862 423.593 240.757C422.751 239.473 421.411 235.284 420.615 231.449C419.297 225.102 418.719 224.07 414.19 219.975C409.599 215.825 385.922 187.729 382.166 181.975C381.269 180.6 374.753 172.569 367.686 164.129C338.04 128.722 319.026 105.703 322.155 109.011C325.863 112.931 372.274 167.59 378.335 175.175C380.444 177.815 382.709 179.975 383.368 179.975C384.758 179.975 408.316 208.085 415.109 217.85C419.443 224.08 420 224.516 424.457 225.156C427.063 225.531 429.476 226.118 429.819 226.46C430.162 226.803 431.237 224.744 432.209 221.885L433.976 216.687L420.665 196.56C413.343 185.49 407.107 175.492 406.806 174.341C406.505 173.191 398.479 160.375 388.97 145.862C368.826 115.117 364.352 108.103 365.763 109.475C366.329 110.025 376.401 124.768 388.146 142.237C399.891 159.706 415.874 183.437 423.664 194.972L437.829 215.944L435.725 222.416L433.62 228.889L436.518 231.182C438.112 232.443 443.035 234.853 447.458 236.538C457.532 240.374 459.281 241.298 465.665 246.156C470.475 249.817 471.351 250.108 478.426 250.405C486.69 250.752 488.192 251.463 500.406 260.812L506.313 265.333L505.638 258.743C505.134 253.827 505.285 252.041 506.231 251.708C507.159 251.381 506.942 250.485 505.42 248.368L503.339 245.475L507.42 239.526C512.392 232.276 516.14 229.96 523.866 229.36C529.463 228.926 529.965 229.078 533.241 232.188C536.059 234.864 536.93 236.692 537.927 242.028C539.14 248.517 539.116 248.671 535.476 257.767C533.454 262.818 530.542 268.688 529.005 270.809C527.468 272.931 525.458 276.122 524.539 277.9C523.562 279.79 521.441 281.728 519.434 282.567C515.132 284.364 515.125 285.383 519.394 288.182C523.88 291.122 524.96 293.039 526.091 300.059C526.612 303.294 528.302 308.086 529.847 310.708L532.655 315.475L546.578 315.135C570.027 314.563 587.625 317.745 603.5 325.429C608.45 327.825 614.266 331.191 616.423 332.908C621.123 336.65 620.965 336.816 624.965 323.975C633.344 297.082 635.505 281.835 635.457 249.975C635.424 228.001 635.105 222.709 633.15 211.701C629.639 191.936 624.942 175.527 617.104 155.644L615.988 152.813L611.071 156.423C603.861 161.716 590.507 167.653 580.377 170.071C572.748 171.891 569.461 172.119 557 171.689C540.453 171.118 533.365 169.435 520.5 163.024C494.551 150.092 476.025 124.913 471.949 97.0398C470.466 86.8948 471.215 70.0008 473.548 60.9748C475.612 52.9898 481.457 40.1848 486.359 32.9118L490.023 27.4748L485.762 25.6328C470.116 18.8688 444.318 12.0228 424.751 9.44178C413.442 7.95078 387.394 6.89578 378.5 7.56978ZM494.565 34.0798C490.635 38.7508 485.204 49.0258 482.566 56.7808C468.577 97.9088 488.912 142.444 529.281 159.091C554.512 169.495 586.111 165.847 607.803 150.024C611.325 147.456 611.983 146.485 611.43 144.68C610.319 141.061 603.352 127.468 601.5 125.309C600.95 124.667 599.15 121.863 597.5 119.078C595.85 116.292 594.162 114.004 593.75 113.994C593.338 113.983 593 113.385 593 112.664C593 111.942 592.2 110.48 591.223 109.414C590.245 108.347 588.354 105.9 587.02 103.975C585.686 102.05 583.894 99.7998 583.036 98.9748C582.179 98.1498 580.191 95.7458 578.618 93.6328C574.827 88.5398 555.682 69.3598 550 64.9628C547.525 63.0478 544.5 60.4988 543.277 59.2998C542.054 58.1008 539.692 56.3148 538.027 55.3318C536.362 54.3478 535 53.2448 535 52.8808C535 52.5158 533.65 51.6578 532 50.9748C530.35 50.2918 529 49.3368 529 48.8538C529 48.3698 528.41 47.9748 527.689 47.9748C526.967 47.9748 525.411 47.0748 524.23 45.9748C523.05 44.8748 521.86 43.9748 521.586 43.9748C521.312 43.9748 518.706 42.5558 515.794 40.8208C509.548 37.0988 501.198 32.6278 498.797 31.7188C497.636 31.2788 496.29 32.0298 494.565 34.0798ZM292.945 36.7948C280.099 41.0558 270.53 48.8908 263.255 61.1078C253.134 78.0998 253.878 101.792 265.123 120.61C270.892 130.265 288.831 146.764 290.919 144.335C291.326 143.862 293.313 141.4 295.336 138.864L299.013 134.253L296.671 128.864C291.802 117.659 290.527 111.202 290.575 97.9748C290.616 86.7858 290.908 84.7408 293.358 78.4748C296.75 69.8008 302.588 60.7178 308.145 55.4678L312.372 51.4748L308.083 56.4748C304.566 60.5758 300 67.7828 300 69.2338C300 69.4208 301.513 69.3968 303.362 69.1808C311.408 68.2418 330.68 76.3978 344.396 86.5488L350.291 90.9118L354.132 87.8708C356.244 86.1978 358.222 84.4238 358.528 83.9298C359.366 82.5738 354.45 72.4718 348.574 63.4748C341.335 52.3898 332.297 43.7248 323.374 39.3148C317.072 36.2008 314.966 35.6798 307.311 35.3418C300.614 35.0458 297.167 35.3948 292.945 36.7948ZM142.105 129.845C139.755 130.503 139.784 130.572 143.605 133.481C155.145 142.266 172.151 160.749 183.034 176.337C188.857 184.677 189.346 184.679 190.461 176.381C191.956 165.248 187.398 151.854 178.981 142.645C169.688 132.477 153.175 126.745 142.105 129.845ZM227.046 152.513C224.046 153.352 219.651 155.008 217.278 156.193C212.067 158.795 203.76 166.819 200.495 172.402C198.286 176.181 195.617 184.975 196.68 184.975C196.938 184.975 202.177 182.569 208.324 179.628C225.175 171.565 246.571 164.212 258.294 162.454C260.882 162.066 263 161.409 263 160.994C263 159.702 255.564 155.248 250.417 153.457C243.545 151.066 233.647 150.666 227.046 152.513ZM138.251 173.491C130.537 175.167 123.662 178.827 118.114 184.212C114.153 188.057 108.302 196.648 109.129 197.406C109.333 197.593 113.55 196.724 118.5 195.475C132.272 192 148.931 189.967 165.74 189.709C174.123 189.58 180.985 189.195 180.99 188.852C181.013 187.402 171.773 179.893 166.971 177.46C161.957 174.919 150.649 171.943 146.5 172.072C145.4 172.106 141.688 172.745 138.251 173.491ZM203.75 192.124C201.688 192.701 200 193.483 200 193.86C200 194.238 204.364 197.006 209.697 200.011C223.813 207.964 238.536 218.68 248.9 228.542C259.337 238.475 260.139 238.302 258.15 226.551C255.738 212.301 247.061 200.717 234.315 194.729C228.246 191.878 226.405 191.503 217.5 191.301C212 191.177 205.813 191.547 203.75 192.124ZM154.157 202.225C150.759 217.585 147.963 251.659 149.453 259.553C150.18 263.406 150.235 263.31 152.561 254.13C157.602 234.228 166.355 216.512 178.701 201.225L182.134 196.975H168.726H155.318L154.157 202.225ZM195.402 205.225C198.093 218.65 197.899 251.504 195.027 268.475C194.468 271.775 194.009 274.613 194.006 274.782C193.984 275.932 200.953 270.639 204.654 266.693C209.922 261.077 213.666 253.422 215.213 245.103C217.549 232.546 212.34 217.28 202.333 207.353C196.014 201.084 194.477 200.612 195.402 205.225ZM435 244.531C435 244.602 439.162 251.594 444.25 260.068L453.5 275.475L458.815 276.124C461.739 276.481 464.431 277.072 464.797 277.439C465.164 277.805 466.003 276.163 466.662 273.79C467.321 271.417 468.152 268.529 468.508 267.373C469.076 265.529 467.559 264.334 456.163 257.646C448.777 253.312 442.26 248.744 441.062 247.062C439.823 245.323 438.14 244.164 436.977 244.252C435.89 244.334 435 244.459 435 244.531ZM501.695 317.223C498.013 319.559 495 321.736 495 322.061C495 322.519 509.157 319.902 513.299 318.678C513.738 318.549 512.813 317.212 511.244 315.709L508.391 312.975L501.695 317.223ZM446.438 318.288C438.088 322.79 422 333.208 422 334.114C422 336.503 425.016 335.159 435.213 328.226C446.424 320.603 453.984 314.986 453 315.009C452.725 315.015 449.772 316.491 446.438 318.288ZM541.119 322.714C537.178 323.064 536.927 323.234 538.619 324.406C542.09 326.811 554.46 332.812 558.5 334.051C560.7 334.726 565.031 336.56 568.124 338.127C571.217 339.693 574.145 340.975 574.632 340.975C575.118 340.975 577.537 342.04 580.008 343.343C582.479 344.645 586.73 346.036 589.456 346.435C593.86 347.079 607.79 350.783 612.121 352.462C613.034 352.816 613.977 352.519 614.28 351.782C614.576 351.063 615.532 348.808 616.403 346.771L617.988 343.068L611.59 338.502C593.953 325.916 568.716 320.262 541.119 322.714ZM505 327.929C483.041 332.547 479.028 333.828 472.768 338.219C467.899 341.634 465.199 342.667 456.224 344.546C450.326 345.781 442.922 347.948 439.771 349.362C434.442 351.752 434.08 352.127 434.599 354.719C435.245 357.949 432.159 362.584 428.414 364.008C425.784 365.008 399.971 367.485 377.377 368.906C364.524 369.714 360.169 370.452 348.377 373.821C328.713 379.439 310.785 383.695 294 386.729C280.916 389.095 277.059 389.353 254.5 389.374C230.469 389.396 229.118 389.293 219.649 386.718C204.926 382.714 193.138 377.044 183.25 369.209C178.544 365.48 178.242 365.603 180.649 370.275C188.349 385.213 206.031 408.242 221.603 423.611C231.679 433.556 233.99 435.293 243.193 439.845C261.885 449.089 278.334 452.661 297 451.529C330.774 449.48 358.613 438.129 429.485 397.51C486.487 364.839 511.936 353.581 542.454 347.532L553.408 345.361L542.954 342.025C532.805 338.787 532.31 338.489 525.985 331.832C522.401 328.061 519.251 325.001 518.985 325.033C518.718 325.065 512.425 326.368 505 327.929ZM549.928 353.505C519.411 358.263 491.306 370.424 431 404.97C360.256 445.494 331.659 456.936 297 458.583C285.403 459.134 269.332 457.676 262.496 455.452C257.983 453.983 272.452 462.461 285.5 468.93C302.301 477.26 314.817 481.953 332.951 486.721C345.948 490.138 347.213 490.285 364 490.326C390.798 490.392 410.868 485.573 435.758 473.096C458.167 461.863 475.57 449.107 512.519 416.834C544.032 389.308 553.052 382.627 568.377 375.462C579.872 370.088 586.264 368.587 597.111 368.713L605.723 368.813L607.861 365.008C609.038 362.915 610 360.767 610 360.235C610 359.011 597.359 355.229 587.23 353.423C577.617 351.709 561.218 351.745 549.928 353.505ZM582.501 377.524C567.6 381.609 551.11 392.835 519.405 420.475C483.997 451.345 472.454 460.303 453.073 471.959C439.895 479.884 428.596 485.127 414 490.09L402.5 494L410.5 493.407C437.44 491.41 466.004 484.354 491 473.522C526.794 458.009 562.551 429.758 585.986 398.475C595.145 386.248 601 377.677 601 376.495C601 375.438 587.336 376.199 582.501 377.524ZM282.5 537.436C279.75 538.234 277.211 538.907 276.858 538.931C276.505 538.955 273.925 541.036 271.123 543.554C266.103 548.068 262.99 554.531 263.006 560.407C263.03 569.614 269.567 576.922 284.508 584.445C296.438 590.452 302.297 595.56 301.825 599.542C300.831 607.915 284.05 609.348 275.447 601.794L271.92 598.698L265.46 603.078C261.907 605.488 259 607.81 259 608.239C259 610.291 267.834 618.237 272.858 620.705C277.881 623.171 279.597 623.475 288.5 623.475C297.411 623.475 299.117 623.172 304.161 620.695C314.214 615.758 319.01 608.401 318.972 597.975C318.934 587.373 311.728 579.558 294.39 571.317C282.518 565.674 279.287 562.797 280.506 558.955C281.474 555.906 286.855 552.982 291.5 552.982C295.685 552.982 301.657 555.917 302.63 558.453C303.071 559.601 304.457 559.06 309.034 555.952C312.247 553.77 315.132 551.571 315.444 551.066C316.471 549.404 309.574 541.632 304.972 539.264C299.158 536.271 289.284 535.469 282.5 537.436ZM737 537.337C714.617 542.2 699.499 564.277 703.075 586.88C706.826 610.595 730.048 627.285 753.665 623.24C774.302 619.705 787 603.587 787 580.926V574.975H767H747V582.975V590.975H757.93H768.86L768.036 593.848C765.538 602.559 759.269 606.386 747.5 606.383C740.824 606.381 738.673 605.949 734.5 603.771C724.766 598.691 720.044 590.917 720.044 579.975C720.044 566.827 728.62 556.48 741.514 554.071C749.262 552.624 756.279 554.798 765.679 561.557C767.792 563.077 767.997 562.919 772.464 556.3L777.07 549.475L773.785 546.648C769.079 542.6 762.001 539.188 754.769 537.483C747.409 535.747 744.432 535.723 737 537.337ZM615 579.392V621.975H623.482H631.963L632.232 598.725L632.5 575.475L654.504 596.975C666.607 608.8 677.969 619.797 679.754 621.412L683 624.349V581.162V537.975H674.5H666V560.975C666 573.625 665.739 583.975 665.419 583.975C665.1 583.975 654.065 573.512 640.897 560.725C627.729 547.938 616.515 537.325 615.977 537.142C615.351 536.928 615 552.099 615 579.392ZM0 579.975V621.975H8.47705H16.955L17.2271 604.078L17.5 586.181L29.879 604.078L42.257 621.975H52.7469H63.2371L60.778 618.725C59.425 616.938 55.844 611.875 52.819 607.475C49.795 603.075 44.323 595.229 40.66 590.04C36.997 584.851 34 579.987 34 579.232C34 578.476 39.531 569.447 46.291 559.166C53.052 548.886 58.928 539.913 59.35 539.225C59.944 538.258 57.9 537.976 50.309 537.98L40.5 537.984L28.75 556.125L17 574.266V556.12V537.975H8.5H0V579.975ZM80 579.975V621.975H88.5H97V579.975V537.975H88.5H80V579.975ZM115 546.475V554.975H125.5H136V588.475V621.975H144.5H153V588.475V554.975H163H173V546.475V537.975H144H115V546.475ZM191 579.975V621.975H216.5H242V613.475V604.975H225H208V596.475V587.975H222.5H237V579.475V570.975H222.5H208V562.975V554.975H225H242V546.475V537.975H216.5H191V579.975ZM337.012 566.225C337.024 595.213 337.563 600.366 341.346 607.678C343.685 612.199 349.641 617.729 355.5 620.819C359.824 623.1 361.716 623.458 369.5 623.466C377.328 623.474 379.237 623.113 384.161 620.695C390.679 617.494 396.295 611.732 399.363 605.097C401.378 600.74 401.517 598.686 401.803 569.225L402.105 537.975H393.553H385V566.827C385 595.102 384.955 595.745 382.75 598.985C379.025 604.458 375.504 606.475 369.677 606.475C363.245 606.475 358.578 603.458 355.905 597.574C354.235 593.896 354.042 590.623 354.022 565.725L354 537.975H345.5H337L337.012 566.225ZM425 579.894V621.975H433.478H441.957L442.228 602.725L442.5 583.475L455.429 602.725L468.359 621.975H478.765H489.17L485.715 617.225C475.456 603.123 466.004 589.604 466.037 589.076C466.057 588.745 468.001 587.255 470.356 585.764C475.522 582.494 479.839 575.128 480.662 568.178C481.923 557.536 475.8 546.539 465.638 541.191C460.707 538.597 459.783 538.474 442.75 538.15L425 537.813V579.894ZM506 579.975V621.975H514.5H523V605.502V589.03L537.25 588.752L551.5 588.475L551.79 580.225L552.081 571.975H537.54H523V563.499V555.023L539.75 554.749L556.5 554.475L556.79 546.225L557.081 537.975H531.54H506V579.975ZM575 579.975V621.975H583.5H592V579.975V537.975H583.5H575V579.975ZM442 565.369V575.975H448.566C455.612 575.975 458.496 574.98 461.228 571.608C463.847 568.374 463.531 561.704 460.597 558.293C458.399 555.738 457.5 555.467 450.097 555.131L442 554.763V565.369ZM285.016 664.725C281.493 672.288 275.801 684.444 272.368 691.739C263.588 710.396 263.719 708.975 270.781 708.975H276.696L278.5 704.975L280.304 700.975H291.632H302.959L305 704.975L307.041 708.975H313.104C316.571 708.975 319.024 708.561 318.833 708.008C317.68 704.662 292.398 651.035 291.961 651.008C291.665 650.99 288.54 657.163 285.016 664.725ZM535.732 653.536C534.142 656.623 516.422 694.703 512.378 703.725L510.025 708.975L516.263 708.965L522.5 708.955L524.176 704.965L525.851 700.975H537.274H548.696L550.5 704.975L552.304 708.975H558.581H564.858L552.609 682.725C545.872 668.288 539.66 655.153 538.804 653.536L537.246 650.598L535.732 653.536ZM208.291 680.225L208.5 708.475L218.408 708.763C236.845 709.299 245.953 705.384 251.478 694.546C254.103 689.395 254.499 687.557 254.495 680.546C254.491 673.702 254.057 671.59 251.636 666.652C246.336 655.84 237.836 651.975 219.359 651.975H208.082L208.291 680.225ZM337 680.475V708.975H342.469H347.938L348.219 696.738L348.5 684.5L357 696.736L365.5 708.973L372.365 708.974L379.23 708.975L377.442 706.225C376.458 704.712 371.937 698.164 367.395 691.672L359.136 679.87L367.4 667.172C371.944 660.189 375.99 653.913 376.39 653.225C376.941 652.279 375.557 651.975 370.706 651.975H364.294L356.152 664.225L348.009 676.475L348.005 664.225L348 651.975H342.5H337V680.475ZM397 680.475V708.975H402.5H408V697.475V685.975H417.893C425.992 685.975 427.896 686.262 428.393 687.557C428.727 688.427 429 693.602 429 699.057V708.975H434.5H440V680.475V651.975H434.533H429.066L428.783 663.225L428.5 674.475L418.25 674.76L408 675.045V663.51V651.975H402.5H397V680.475ZM462 680.475V708.975H479H496V703.475V697.975H484.5H473V674.975V651.975H467.5H462V680.475ZM220 680.474V698.25L225.75 697.577C232.561 696.78 237.611 694.376 240.443 690.583C243.545 686.429 243.388 674.721 240.171 670.21C237.092 665.893 232.942 663.871 225.838 663.227L220 662.697V680.474ZM288.206 683.975L285.114 690.975H291.977H298.84L295.67 683.98C293.926 680.133 292.23 676.983 291.899 676.98C291.568 676.977 289.906 680.125 288.206 683.975ZM533.998 683.274C532.22 687.014 530.991 690.299 531.267 690.575C531.542 690.851 534.527 690.941 537.898 690.776L544.028 690.475L540.629 683.475L537.23 676.475L533.998 683.274Z" fill="#17363D"/>
</svg>
